<svg version="1.0" xmlns="http://www.w3.org/2000/svg" width="950.667" height="776" viewBox="0 0 713 582"><g fill="#fff"><path d="M145 50.8v33.9l12.8.5c17.3.7 24 3.7 28.1 12.7 1.4 3.3 1.6 16.1 2.1 135.6l.5 132h70l.3-53.3.2-53.4 20.8.5c12.1.2 22.3.9 24.5 1.6 2 .7 6.5 3.3 10 5.9 5.5 4.2 8.2 7.7 25.5 33.7 10.6 15.9 25.2 38 32.3 49 7.2 11 17.5 26.9 23 35.2L405 400l-5.1 9.2c-2.9 5.1-10.3 19.2-16.6 31.3-21.6 41.5-34.2 56.5-56.4 66.9-11.7 5.6-17.6 6.8-35.4 7.3-11.3.3-18.6 0-25-1-4.9-.8-9.3-1.3-9.7-1-.5.2-.8 11.4-.8 24.8v24.4l5.3 1.5c12.5 3.6 25.3 4.8 45.6 4.3 17.8-.4 20.7-.7 31.6-3.6 37-9.6 63.4-32.5 87.2-75.6 6.8-12.4 25.9-48 35.9-67.3 3.7-7 14-26.4 22.9-43.2 23.6-44.3 56.9-108.6 95.3-183.8 5.3-10.5 5.8-11.1 7.2-9.3.8 1 9.6 13.7 19.5 28.2s25.1 36.6 33.8 49.2c8.6 12.5 15.7 23.1 15.7 23.6 0 .7-17.8 27.1-47.6 70.6-22.3 32.5-47.4 70.3-47.4 71.4 0 .8 6.4 1.1 19.8 1.1 17.7 0 20.1-.2 21.4-1.8.9-.9 15.3-21.5 32-45.7 16.8-24.2 33.3-48.1 36.7-53 20-28.8 28.1-40.9 28.1-42 0-.7-7.5-12.2-16.7-25.6-15.5-22.5-28.9-42.1-69.8-101.7-8.2-12.1-16.2-23.4-17.6-25.3l-2.7-3.4-17.3-.3c-9.5-.2-18.8-.1-20.5.3-3 .5-4.1 2.1-17.5 26.8-7.8 14.4-23.4 43.1-34.7 63.7-11.3 20.6-27.2 49.9-35.5 65-8.2 15.1-17.8 32.8-21.4 39.3l-6.5 11.8-15.2-24.3c-19.6-31.3-33-52.2-36.8-57.6-1.7-2.4-2.9-4.4-2.7-4.6.2-.1 5.1-1.7 10.8-3.5 49.8-15.6 80.4-45.3 89.1-86.5 8.6-40.6-3.7-81.5-32.6-108.5C435 36.8 413 25.7 387.2 19.8c-9.7-2.2-10.1-2.2-125.9-2.5L145 16.9v33.9zm221.5 36.6c22.3 5 38 19.4 43.1 39.6 2.3 9 1.5 24.1-1.8 33-6.5 17.7-21.4 31.3-40.8 37.1-7.3 2.2-9 2.3-57.7 2.7l-50.3.3v-57c0-53.4.1-57 1.8-57.4.9-.2 23.5-.3 50.2-.1 39.3.2 49.8.6 55.5 1.8zM111.2 143.8c-1.3.9-16.6 23.3-67.7 99.3-26.9 39.9-28.6 42.8-27.5 45 .7 1.3 5 7.6 9.5 13.9 10.4 14.7 57.9 82.8 74.6 107.1 7.1 10.3 13.6 18.9 14.5 19.3.8.3 9.9.6 20.1.6 17.6 0 18.5-.1 18-1.9-.5-1.9-15.6-24.5-60.6-90.6-13.4-19.8-26.7-39.3-29.5-43.4-3.4-5.1-4.7-7.7-4-8.6.5-.7 4.3-6.2 8.5-12.1 4.1-6 9.1-13.2 11-15.9 2-2.8 9.1-13.1 15.9-23 6.8-9.9 14.6-21.2 17.3-25 16.7-24.1 42.7-63.8 42.2-64.6-.7-1.1-40.5-1.2-42.3-.1z"/></g></svg>